<mxfile host="app.diagrams.net" agent="Mozilla/5.0 (Macintosh; Intel Mac OS X 10_15_7) AppleWebKit/537.36 (KHTML, like Gecko) Chrome/133.0.0.0 Safari/537.36" version="24.7.7">
  <diagram name="Page-1" id="fkNHMDiiZ0_pMgVUQDcm">
    <mxGraphModel dx="2009" dy="1322" grid="1" gridSize="10" guides="1" tooltips="1" connect="1" arrows="1" fold="1" page="1" pageScale="1" pageWidth="850" pageHeight="1100" math="0" shadow="0">
      <root>
        <mxCell id="0" />
        <mxCell id="1" parent="0" />
        <mxCell id="GNPTbzmKkYG7Ya-rCheh-6" style="edgeStyle=orthogonalEdgeStyle;rounded=0;orthogonalLoop=1;jettySize=auto;html=1;entryX=0;entryY=0.5;entryDx=0;entryDy=0;" edge="1" parent="1" source="GNPTbzmKkYG7Ya-rCheh-3" target="GNPTbzmKkYG7Ya-rCheh-5">
          <mxGeometry relative="1" as="geometry" />
        </mxCell>
        <mxCell id="GNPTbzmKkYG7Ya-rCheh-3" value="" style="ellipse;whiteSpace=wrap;html=1;aspect=fixed;" vertex="1" parent="1">
          <mxGeometry x="60" y="580" width="50" height="50" as="geometry" />
        </mxCell>
        <mxCell id="GNPTbzmKkYG7Ya-rCheh-4" value="CLIENT" style="text;html=1;align=center;verticalAlign=middle;resizable=0;points=[];autosize=1;strokeColor=none;fillColor=none;" vertex="1" parent="1">
          <mxGeometry x="50" y="639" width="70" height="30" as="geometry" />
        </mxCell>
        <mxCell id="GNPTbzmKkYG7Ya-rCheh-49" value="" style="edgeStyle=orthogonalEdgeStyle;rounded=0;orthogonalLoop=1;jettySize=auto;html=1;" edge="1" parent="1" source="GNPTbzmKkYG7Ya-rCheh-5" target="GNPTbzmKkYG7Ya-rCheh-48">
          <mxGeometry relative="1" as="geometry" />
        </mxCell>
        <mxCell id="GNPTbzmKkYG7Ya-rCheh-5" value="Architecture" style="swimlane;whiteSpace=wrap;html=1;fontSize=10;" vertex="1" parent="1">
          <mxGeometry x="200" y="280" width="1600" height="650" as="geometry" />
        </mxCell>
        <mxCell id="GNPTbzmKkYG7Ya-rCheh-16" value="" style="edgeStyle=orthogonalEdgeStyle;rounded=0;orthogonalLoop=1;jettySize=auto;html=1;" edge="1" parent="GNPTbzmKkYG7Ya-rCheh-5" source="GNPTbzmKkYG7Ya-rCheh-7" target="GNPTbzmKkYG7Ya-rCheh-12">
          <mxGeometry relative="1" as="geometry" />
        </mxCell>
        <mxCell id="GNPTbzmKkYG7Ya-rCheh-7" value="" style="swimlane;startSize=0;" vertex="1" parent="GNPTbzmKkYG7Ya-rCheh-5">
          <mxGeometry x="35" y="50" width="200" height="550" as="geometry">
            <mxRectangle x="35" y="50" width="50" height="40" as="alternateBounds" />
          </mxGeometry>
        </mxCell>
        <mxCell id="GNPTbzmKkYG7Ya-rCheh-8" value="K8S - INGRESS CONTROLLER" style="text;html=1;align=center;verticalAlign=middle;resizable=0;points=[];autosize=1;strokeColor=none;fillColor=none;" vertex="1" parent="GNPTbzmKkYG7Ya-rCheh-7">
          <mxGeometry y="205" width="200" height="30" as="geometry" />
        </mxCell>
        <mxCell id="GNPTbzmKkYG7Ya-rCheh-9" value="&amp;nbsp;Routes API Calls" style="text;html=1;align=center;verticalAlign=middle;resizable=0;points=[];autosize=1;strokeColor=none;fillColor=none;fontSize=10;" vertex="1" parent="GNPTbzmKkYG7Ya-rCheh-7">
          <mxGeometry x="50" y="220" width="100" height="30" as="geometry" />
        </mxCell>
        <mxCell id="GNPTbzmKkYG7Ya-rCheh-18" style="edgeStyle=orthogonalEdgeStyle;rounded=0;orthogonalLoop=1;jettySize=auto;html=1;entryX=0;entryY=0.5;entryDx=0;entryDy=0;" edge="1" parent="GNPTbzmKkYG7Ya-rCheh-5" source="GNPTbzmKkYG7Ya-rCheh-12" target="GNPTbzmKkYG7Ya-rCheh-17">
          <mxGeometry relative="1" as="geometry" />
        </mxCell>
        <mxCell id="GNPTbzmKkYG7Ya-rCheh-12" value="" style="swimlane;startSize=0;" vertex="1" parent="GNPTbzmKkYG7Ya-rCheh-5">
          <mxGeometry x="315" y="50" width="200" height="550" as="geometry">
            <mxRectangle x="35" y="50" width="50" height="40" as="alternateBounds" />
          </mxGeometry>
        </mxCell>
        <mxCell id="GNPTbzmKkYG7Ya-rCheh-13" value="K8S - API LAYER (Express.js)" style="text;html=1;align=center;verticalAlign=middle;resizable=0;points=[];autosize=1;strokeColor=none;fillColor=none;" vertex="1" parent="GNPTbzmKkYG7Ya-rCheh-12">
          <mxGeometry x="10" y="205" width="180" height="30" as="geometry" />
        </mxCell>
        <mxCell id="GNPTbzmKkYG7Ya-rCheh-14" value="Handles /data requests &amp;amp; validation" style="text;html=1;align=center;verticalAlign=middle;resizable=0;points=[];autosize=1;strokeColor=none;fillColor=none;fontSize=10;" vertex="1" parent="GNPTbzmKkYG7Ya-rCheh-12">
          <mxGeometry x="10" y="220" width="180" height="30" as="geometry" />
        </mxCell>
        <mxCell id="GNPTbzmKkYG7Ya-rCheh-17" value="K8S - Services Layer" style="swimlane;whiteSpace=wrap;html=1;" vertex="1" parent="GNPTbzmKkYG7Ya-rCheh-5">
          <mxGeometry x="600" y="50" width="290" height="550" as="geometry" />
        </mxCell>
        <mxCell id="GNPTbzmKkYG7Ya-rCheh-19" value="Ingestion Service (Node.js)" style="swimlane;whiteSpace=wrap;html=1;" vertex="1" parent="GNPTbzmKkYG7Ya-rCheh-17">
          <mxGeometry x="50" y="60" width="200" height="200" as="geometry" />
        </mxCell>
        <mxCell id="GNPTbzmKkYG7Ya-rCheh-21" value="Handles POST /data" style="text;html=1;align=center;verticalAlign=middle;resizable=0;points=[];autosize=1;strokeColor=none;fillColor=none;" vertex="1" parent="GNPTbzmKkYG7Ya-rCheh-19">
          <mxGeometry x="35" y="40" width="130" height="30" as="geometry" />
        </mxCell>
        <mxCell id="GNPTbzmKkYG7Ya-rCheh-24" value="&lt;div&gt;- Validates JSON input&lt;/div&gt;&lt;div&gt;&lt;br&gt;&lt;/div&gt;&lt;div&gt;- Pushes to Kafka Queue&lt;/div&gt;" style="text;html=1;align=left;verticalAlign=middle;resizable=0;points=[];autosize=1;strokeColor=none;fillColor=none;" vertex="1" parent="GNPTbzmKkYG7Ya-rCheh-19">
          <mxGeometry x="25" y="90" width="160" height="60" as="geometry" />
        </mxCell>
        <mxCell id="GNPTbzmKkYG7Ya-rCheh-20" value="Query Service (Node.js)" style="swimlane;whiteSpace=wrap;html=1;" vertex="1" parent="GNPTbzmKkYG7Ya-rCheh-17">
          <mxGeometry x="50" y="310" width="200" height="200" as="geometry" />
        </mxCell>
        <mxCell id="GNPTbzmKkYG7Ya-rCheh-22" value="Handles GET /data" style="text;html=1;align=center;verticalAlign=middle;resizable=0;points=[];autosize=1;strokeColor=none;fillColor=none;" vertex="1" parent="GNPTbzmKkYG7Ya-rCheh-20">
          <mxGeometry x="35" y="40" width="130" height="30" as="geometry" />
        </mxCell>
        <mxCell id="GNPTbzmKkYG7Ya-rCheh-43" value="- Handles /data requests&lt;div&gt;&lt;br&gt;&lt;/div&gt;&lt;div&gt;- Reads from Redis&lt;/div&gt;&lt;div&gt;&lt;br&gt;&lt;/div&gt;&lt;div&gt;- Falls back to MongoDB if needed&amp;nbsp;&lt;/div&gt;" style="text;html=1;align=left;verticalAlign=middle;resizable=0;points=[];autosize=1;strokeColor=none;fillColor=none;" vertex="1" parent="GNPTbzmKkYG7Ya-rCheh-20">
          <mxGeometry x="10" y="70" width="210" height="90" as="geometry" />
        </mxCell>
        <mxCell id="GNPTbzmKkYG7Ya-rCheh-30" style="edgeStyle=orthogonalEdgeStyle;rounded=0;orthogonalLoop=1;jettySize=auto;html=1;entryX=0;entryY=0.5;entryDx=0;entryDy=0;" edge="1" parent="GNPTbzmKkYG7Ya-rCheh-5" source="GNPTbzmKkYG7Ya-rCheh-25" target="GNPTbzmKkYG7Ya-rCheh-28">
          <mxGeometry relative="1" as="geometry" />
        </mxCell>
        <mxCell id="GNPTbzmKkYG7Ya-rCheh-25" value="Kafka Broker" style="swimlane;whiteSpace=wrap;html=1;" vertex="1" parent="GNPTbzmKkYG7Ya-rCheh-5">
          <mxGeometry x="940" y="50" width="200" height="200" as="geometry" />
        </mxCell>
        <mxCell id="GNPTbzmKkYG7Ya-rCheh-27" value="Message Queue&lt;div&gt;&lt;br&gt;&lt;/div&gt;&lt;div&gt;Topic: `data-ingestion`&lt;/div&gt;" style="text;html=1;align=center;verticalAlign=middle;resizable=0;points=[];autosize=1;strokeColor=none;fillColor=none;" vertex="1" parent="GNPTbzmKkYG7Ya-rCheh-25">
          <mxGeometry x="30" y="70" width="140" height="60" as="geometry" />
        </mxCell>
        <mxCell id="GNPTbzmKkYG7Ya-rCheh-28" value="Kafka Consumer Group" style="swimlane;whiteSpace=wrap;html=1;" vertex="1" parent="GNPTbzmKkYG7Ya-rCheh-5">
          <mxGeometry x="1180" y="50" width="350" height="200" as="geometry" />
        </mxCell>
        <mxCell id="GNPTbzmKkYG7Ya-rCheh-36" style="edgeStyle=orthogonalEdgeStyle;rounded=0;orthogonalLoop=1;jettySize=auto;html=1;exitX=1;exitY=0.5;exitDx=0;exitDy=0;entryX=0;entryY=0.5;entryDx=0;entryDy=0;" edge="1" parent="GNPTbzmKkYG7Ya-rCheh-28" source="GNPTbzmKkYG7Ya-rCheh-32" target="GNPTbzmKkYG7Ya-rCheh-34">
          <mxGeometry relative="1" as="geometry" />
        </mxCell>
        <mxCell id="GNPTbzmKkYG7Ya-rCheh-32" value="Async Workers" style="swimlane;whiteSpace=wrap;html=1;" vertex="1" parent="GNPTbzmKkYG7Ya-rCheh-28">
          <mxGeometry x="20" y="40" width="140" height="140" as="geometry" />
        </mxCell>
        <mxCell id="GNPTbzmKkYG7Ya-rCheh-33" value="- Processes data&lt;div&gt;&lt;br&gt;&lt;/div&gt;&lt;div&gt;- Logs, indexing&amp;nbsp;&lt;br&gt;&lt;div&gt;&lt;br&gt;&lt;/div&gt;&lt;/div&gt;" style="text;html=1;align=center;verticalAlign=middle;resizable=0;points=[];autosize=1;strokeColor=none;fillColor=none;" vertex="1" parent="GNPTbzmKkYG7Ya-rCheh-32">
          <mxGeometry x="15" y="40" width="110" height="70" as="geometry" />
        </mxCell>
        <mxCell id="GNPTbzmKkYG7Ya-rCheh-34" value="Cache Warming" style="swimlane;whiteSpace=wrap;html=1;" vertex="1" parent="GNPTbzmKkYG7Ya-rCheh-28">
          <mxGeometry x="190" y="40" width="140" height="140" as="geometry" />
        </mxCell>
        <mxCell id="GNPTbzmKkYG7Ya-rCheh-35" value="&lt;div&gt;- Reads from DB&lt;/div&gt;&lt;div&gt;&lt;br&gt;&lt;/div&gt;&lt;div&gt;&lt;div&gt;- Updates Redis&lt;/div&gt;&lt;/div&gt;" style="text;html=1;align=center;verticalAlign=middle;resizable=0;points=[];autosize=1;strokeColor=none;fillColor=none;" vertex="1" parent="GNPTbzmKkYG7Ya-rCheh-34">
          <mxGeometry x="15" y="45" width="110" height="60" as="geometry" />
        </mxCell>
        <mxCell id="GNPTbzmKkYG7Ya-rCheh-29" style="edgeStyle=orthogonalEdgeStyle;rounded=0;orthogonalLoop=1;jettySize=auto;html=1;entryX=0;entryY=0.5;entryDx=0;entryDy=0;" edge="1" parent="GNPTbzmKkYG7Ya-rCheh-5" source="GNPTbzmKkYG7Ya-rCheh-19" target="GNPTbzmKkYG7Ya-rCheh-25">
          <mxGeometry relative="1" as="geometry">
            <Array as="points">
              <mxPoint x="910" y="210" />
              <mxPoint x="910" y="150" />
            </Array>
          </mxGeometry>
        </mxCell>
        <mxCell id="GNPTbzmKkYG7Ya-rCheh-41" style="edgeStyle=orthogonalEdgeStyle;rounded=0;orthogonalLoop=1;jettySize=auto;html=1;exitX=0.5;exitY=1;exitDx=0;exitDy=0;" edge="1" parent="GNPTbzmKkYG7Ya-rCheh-5" source="GNPTbzmKkYG7Ya-rCheh-34" target="GNPTbzmKkYG7Ya-rCheh-53">
          <mxGeometry relative="1" as="geometry">
            <mxPoint x="1440" y="342.5" as="targetPoint" />
          </mxGeometry>
        </mxCell>
        <mxCell id="GNPTbzmKkYG7Ya-rCheh-42" style="edgeStyle=orthogonalEdgeStyle;rounded=0;orthogonalLoop=1;jettySize=auto;html=1;" edge="1" parent="GNPTbzmKkYG7Ya-rCheh-5" source="GNPTbzmKkYG7Ya-rCheh-32" target="GNPTbzmKkYG7Ya-rCheh-55">
          <mxGeometry relative="1" as="geometry">
            <mxPoint x="1270" y="342.5" as="targetPoint" />
            <Array as="points">
              <mxPoint x="1270" y="280" />
              <mxPoint x="1220" y="280" />
            </Array>
          </mxGeometry>
        </mxCell>
        <mxCell id="GNPTbzmKkYG7Ya-rCheh-45" style="edgeStyle=orthogonalEdgeStyle;rounded=0;orthogonalLoop=1;jettySize=auto;html=1;entryX=0.5;entryY=1;entryDx=0;entryDy=0;" edge="1" parent="GNPTbzmKkYG7Ya-rCheh-5" source="GNPTbzmKkYG7Ya-rCheh-20" target="GNPTbzmKkYG7Ya-rCheh-55">
          <mxGeometry relative="1" as="geometry">
            <mxPoint x="1278.4500000000003" y="453.22" as="targetPoint" />
            <Array as="points">
              <mxPoint x="1220" y="510" />
            </Array>
          </mxGeometry>
        </mxCell>
        <mxCell id="GNPTbzmKkYG7Ya-rCheh-47" style="edgeStyle=orthogonalEdgeStyle;rounded=0;orthogonalLoop=1;jettySize=auto;html=1;entryX=0.5;entryY=1;entryDx=0;entryDy=0;" edge="1" parent="GNPTbzmKkYG7Ya-rCheh-5" source="GNPTbzmKkYG7Ya-rCheh-20" target="GNPTbzmKkYG7Ya-rCheh-53">
          <mxGeometry relative="1" as="geometry">
            <mxPoint x="1439.6100000000001" y="446.53999999999996" as="targetPoint" />
            <Array as="points">
              <mxPoint x="1440" y="540" />
            </Array>
          </mxGeometry>
        </mxCell>
        <mxCell id="GNPTbzmKkYG7Ya-rCheh-53" value="Redis Cluster" style="swimlane;whiteSpace=wrap;html=1;" vertex="1" parent="GNPTbzmKkYG7Ya-rCheh-5">
          <mxGeometry x="1340" y="350" width="200" height="140" as="geometry" />
        </mxCell>
        <mxCell id="GNPTbzmKkYG7Ya-rCheh-54" value="Clustered, Sharded&lt;div&gt;&lt;br&gt;&lt;/div&gt;&lt;div&gt;- Horizontal Scaling&lt;/div&gt;&lt;div&gt;- High Availability&lt;/div&gt;" style="text;html=1;align=center;verticalAlign=middle;resizable=0;points=[];autosize=1;strokeColor=none;fillColor=none;" vertex="1" parent="GNPTbzmKkYG7Ya-rCheh-53">
          <mxGeometry x="35" y="50" width="130" height="70" as="geometry" />
        </mxCell>
        <mxCell id="GNPTbzmKkYG7Ya-rCheh-55" value="MongoDB Cluster" style="swimlane;whiteSpace=wrap;html=1;" vertex="1" parent="GNPTbzmKkYG7Ya-rCheh-5">
          <mxGeometry x="1120" y="350" width="200" height="140" as="geometry" />
        </mxCell>
        <mxCell id="GNPTbzmKkYG7Ya-rCheh-56" value="&lt;div&gt;Sharded, Replicated&lt;/div&gt;&lt;div&gt;&lt;br&gt;&lt;/div&gt;&lt;div&gt;- Horizontal Scaling&lt;/div&gt;&lt;div&gt;- High Availability&lt;/div&gt;" style="text;html=1;align=center;verticalAlign=middle;resizable=0;points=[];autosize=1;strokeColor=none;fillColor=none;" vertex="1" parent="GNPTbzmKkYG7Ya-rCheh-55">
          <mxGeometry x="35" y="50" width="130" height="70" as="geometry" />
        </mxCell>
        <mxCell id="GNPTbzmKkYG7Ya-rCheh-48" value="" style="ellipse;whiteSpace=wrap;html=1;fontSize=10;fontStyle=1;startSize=23;" vertex="1" parent="1">
          <mxGeometry x="1920" y="565" width="80" height="80" as="geometry" />
        </mxCell>
        <mxCell id="GNPTbzmKkYG7Ya-rCheh-57" value="END" style="text;html=1;align=center;verticalAlign=middle;resizable=0;points=[];autosize=1;strokeColor=none;fillColor=none;" vertex="1" parent="1">
          <mxGeometry x="1935" y="650" width="50" height="30" as="geometry" />
        </mxCell>
      </root>
    </mxGraphModel>
  </diagram>
</mxfile>
